<?xml version="1.0" encoding="UTF-8" standalone="no"?>
<svg
   xmlns:dc="http://purl.org/dc/elements/1.1/"
   xmlns:cc="http://creativecommons.org/ns#"
   xmlns:rdf="http://www.w3.org/1999/02/22-rdf-syntax-ns#"
   xmlns:svg="http://www.w3.org/2000/svg"
   xmlns="http://www.w3.org/2000/svg"
   viewBox="0 0 144.98282 153.48615"
   height="153.48615"
   width="144.98282"
   version="1.1"
   id="svg2">
  <metadata
     id="metadata8">
    <rdf:RDF>
      <cc:Work
         rdf:about="">
        <dc:format>image/svg+xml</dc:format>
        <dc:type
           rdf:resource="http://purl.org/dc/dcmitype/StillImage" />
        <dc:title></dc:title>
      </cc:Work>
    </rdf:RDF>
  </metadata>
  <defs
     id="defs6" />
  <path
     id="path3351"
     d="M 46,151.60358 C 36.43841,149.58341 26.89145,145.99328 17.11475,140.74132 10.2816,137.07059 0,129.93894 0,128.86995 c 0,-1.05507 11.2567,-14.41486 11.89271,-14.11463 0.33401,0.15767 3.75729,2.33978 7.60729,4.84914 8.21973,5.35746 16.62495,9.19061 25.56626,11.65934 9.07626,2.50599 34.72887,2.5116 43.93374,0.01 14.78578,-4.01896 25.43848,-11.43919 30.7401,-21.41229 C 129.78504,90.965548 123.23349,68.447547 104.95729,59.052252 96.23061,54.565707 89.33603,53.146619 76,53.091676 65.43258,53.048136 62.88158,53.34939 59.5,55.040178 c -3.18536,1.592678 -4.0608,2.62139 -4.29853,5.051099 -0.56729,5.798143 1.46202,6.484747 19.91269,6.73732 14.68713,0.201053 16.90289,0.461966 21.37338,2.516791 5.99656,2.75627 9.10643,5.51559 11.48994,10.19479 6.2829,12.3343 1.59457,27.323342 -10.70753,34.232972 C 90.00045,117.85616 83.22503,119.50748 71,120.17571 50.38404,121.3026 32.07782,115.23832 19.07902,102.97592 11.34556,95.680558 6.18613,87.884568 2.90732,78.540178 -0.34703,69.265528 -0.34696,52.756823 2.90746,43.755381 6.54571,33.692273 9.87504,28.538372 17.93701,20.489179 26.84231,11.597995 35.24831,7.0546177 50.5,2.8891427 c 17.94351,-4.900654 40.07195,-3.51231504 59.76798,3.749844 7.94318,2.928742 19.55312,8.3621363 21.08361,9.8670233 0.61941,0.60905 -5.13046,12.190676 -7.84034,15.792332 -0.10684,0.141991 -3.69957,-1.361396 -7.98386,-3.34086 C 97.08527,20.436698 73.10944,17.351341 56.97475,21.422569 40.93278,25.470404 31.11872,32.300004 24.92268,43.727588 21.64388,49.774807 21.5,50.481581 21.5,60.540178 c 0,9.29907 0.30653,11.154 2.68005,16.21807 5.54326,11.82688 16.74438,20.23066 30.25361,22.69814 11.9478,2.182282 27.64714,0.844742 32.56634,-2.77457 3.46796,-2.55156 3.87758,-7.4127 0.80619,-9.5674 C 85.84742,85.740258 83.61692,85.594678 73,86.148058 52.4696,87.218158 42.55961,83.605498 37.12142,73.068618 33.70977,66.458299 33.55528,56.089634 36.77618,49.897624 46.5923,31.026649 82.90579,26.826387 111.89487,41.208892 c 20.95971,10.398848 33.14284,28.548266 33.08777,49.291386 -0.0434,16.334032 -5.87893,30.024222 -17.93862,42.083922 -10.44557,10.44556 -23.60416,16.91633 -40.47768,19.905 C 77.25057,154.13923 55.78315,153.67056 46,151.60358 Z"
     style="fill:#3e3e3e" />
</svg>
